<svg xmlns="http://www.w3.org/2000/svg" version="1.1" xmlns:xlink="http://www.w3.org/1999/xlink" xmlns:svgjs="http://svgjs.com/svgjs" width="1440" height="560" preserveAspectRatio="none" viewBox="0 0 1440 560"><g mask="url(&quot;#SvgjsMask1008&quot;)" fill="none"><rect width="1440" height="560" x="0" y="0" fill="rgba(255, 171, 14, 1)"></rect><path d="M715.7488998362885 21.164351092732332L675.5545820163994 137.89712612601323 792.2873570496804 178.0914439459023 832.4816748695694 61.358668912621376z" fill="rgba(216, 26, 94, 1)" class="triangle-float3"></path><path d="M869.422723997623 141.34903832203193L972.9764895032088 115.53018478163318 882.4713264398177-26.891036706545975z" fill="rgba(216, 26, 94, 1)" class="triangle-float2"></path><path d="M661.013,375.016C697.413,374.528,729.355,353.396,748.168,322.231C767.705,289.868,775.804,249.286,756.554,216.751C737.58,184.683,698.239,173.308,661.013,174.927C626.767,176.416,596.703,195.213,578.855,224.478C560.148,255.151,552.506,293.086,569.717,324.622C587.565,357.325,623.76,375.515,661.013,375.016" fill="rgba(216, 26, 94, 1)" class="triangle-float2"></path><path d="M267.911,445.612C287.72,444.819,299.466,425.693,308.992,408.306C318.011,391.845,325.731,372.871,316.814,356.354C307.558,339.208,287.366,331.134,267.911,332.209C250.166,333.189,236.611,345.997,227.549,361.285C218.255,376.964,212.84,395.4,220.709,411.841C229.661,430.545,247.192,446.442,267.911,445.612" fill="rgba(216, 26, 94, 1)" class="triangle-float2"></path><path d="M181.744,574.355C235.777,575.235,281.447,537.909,307.777,490.718C333.386,444.82,336.751,389.149,310.478,343.628C284.199,298.097,234.238,269.501,181.744,272.353C133.317,274.984,98.713,314.021,75.157,356.414C52.44,397.297,42.08,444.709,62.628,486.724C85.839,534.184,128.919,573.495,181.744,574.355" fill="rgba(216, 26, 94, 1)" class="triangle-float3"></path><path d="M930.9059544040167 149.19476638307174L954.688220105439 261.0815296735995 1066.5749833959667 237.29926397217722 1042.7927176945445 125.41250068164945z" fill="rgba(216, 26, 94, 1)" class="triangle-float1"></path><path d="M112.296,298.616C125.365,298.681,137.567,292.089,144.29,280.882C151.214,269.34,152.04,255.005,145.524,243.227C138.801,231.075,126.184,222.932,112.296,223.049C98.593,223.164,86.598,231.755,80.024,243.778C73.717,255.313,74.181,269.237,80.849,280.567C87.419,291.731,99.342,298.552,112.296,298.616" fill="rgba(216, 26, 94, 1)" class="triangle-float3"></path><path d="M1065.377409245212 197.55576990577225L979.6167170830753 223.7754447628687 1005.8363919401718 309.53613692500534 1091.5970841023084 283.3164620679089z" fill="rgba(216, 26, 94, 1)" class="triangle-float3"></path><path d="M1300.2735850033334 147.65602877338142L1267.6331775288604 261.48665725271167 1414.1042134826637 180.29643624785453z" fill="rgba(216, 26, 94, 1)" class="triangle-float2"></path><path d="M1022.441,342.691C1043.235,343.251,1064.826,337.7,1076.175,320.267C1088.501,301.333,1090.109,276.251,1078.186,257.06C1066.796,238.727,1044.023,233.575,1022.441,233.78C1001.303,233.981,979.171,239.854,968.502,258.103C957.753,276.488,962.044,299.547,973.494,317.504C984.068,334.087,1002.781,342.162,1022.441,342.691" fill="rgba(216, 26, 94, 1)" class="triangle-float1"></path><path d="M-90.57699738719397 448.09178082136543L1.0385718903577583 553.4834373278286 14.814659119269223 356.4762115438137z" fill="rgba(216, 26, 94, 1)" class="triangle-float1"></path></g><defs><mask id="SvgjsMask1008"><rect width="1440" height="560" fill="#ffffff"></rect></mask><style>
            @keyframes float1 {
                0%{transform: translate(0, 0)}
                50%{transform: translate(-10px, 0)}
                100%{transform: translate(0, 0)}
            }

            .triangle-float1 {
                animation: float1 5s infinite;
            }

            @keyframes float2 {
                0%{transform: translate(0, 0)}
                50%{transform: translate(-5px, -5px)}
                100%{transform: translate(0, 0)}
            }

            .triangle-float2 {
                animation: float2 4s infinite;
            }

            @keyframes float3 {
                0%{transform: translate(0, 0)}
                50%{transform: translate(0, -10px)}
                100%{transform: translate(0, 0)}
            }

            .triangle-float3 {
                animation: float3 6s infinite;
            }
        </style></defs></svg>