<svg xmlns="http://www.w3.org/2000/svg" version="1.1" xmlns:xlink="http://www.w3.org/1999/xlink" xmlns:svgjs="http://svgjs.com/svgjs" width="1440" height="900" preserveAspectRatio="none" viewBox="0 0 1440 900"><g mask="url(&quot;#SvgjsMask1075&quot;)" fill="none"><rect width="1440" height="900" x="0" y="0" fill="rgba(255, 255, 255, 1)"></rect><path d="M58.15 58.64L97.12 81.14L97.12 126.14L58.15 148.64L19.18 126.14L19.18 81.14zM58.15 598.64L97.12 621.14L97.12 666.14L58.15 688.64L19.18 666.14L19.18 621.14zM19.18 801.14L58.15 823.64L58.15 868.64L19.18 891.14L-19.79 868.64L-19.79 823.64zM58.15 868.64L97.12 891.14L97.12 936.14L58.15 958.64L19.18 936.14L19.18 891.14zM136.1 463.64L175.07 486.14L175.07 531.14L136.1 553.64L97.12 531.14L97.12 486.14zM214.04 328.64L253.01 351.14L253.01 396.14L214.04 418.64L175.07 396.14L175.07 351.14zM330.96 -8.86L369.93 13.64L369.93 58.64L330.96 81.14L291.99 58.64L291.99 13.64zM369.93 58.64L408.9 81.14L408.9 126.14L369.93 148.64L330.96 126.14L330.96 81.14zM408.9 -8.86L447.87 13.64L447.87 58.64L408.9 81.14L369.93 58.64L369.93 13.64zM525.82 58.64L564.79 81.14L564.79 126.14L525.82 148.64L486.85 126.14L486.85 81.14zM564.79 261.14L603.76 283.64L603.76 328.64L564.79 351.14L525.82 328.64L525.82 283.64zM603.76 463.64L642.74 486.14L642.74 531.14L603.76 553.64L564.79 531.14L564.79 486.14zM564.79 531.14L603.76 553.64L603.76 598.64L564.79 621.14L525.82 598.64L525.82 553.64zM564.79 801.14L603.76 823.64L603.76 868.64L564.79 891.14L525.82 868.64L525.82 823.64zM681.71 328.64L720.68 351.14L720.68 396.14L681.71 418.64L642.74 396.14L642.74 351.14zM642.74 801.14L681.71 823.64L681.71 868.64L642.74 891.14L603.76 868.64L603.76 823.64zM720.68 -8.86L759.65 13.64L759.65 58.64L720.68 81.14L681.71 58.64L681.71 13.64zM720.68 531.14L759.65 553.64L759.65 598.64L720.68 621.14L681.71 598.64L681.71 553.64zM720.68 801.14L759.65 823.64L759.65 868.64L720.68 891.14L681.71 868.64L681.71 823.64zM837.6 58.64L876.57 81.14L876.57 126.14L837.6 148.64L798.63 126.14L798.63 81.14zM837.6 328.64L876.57 351.14L876.57 396.14L837.6 418.64L798.63 396.14L798.63 351.14zM798.63 531.14L837.6 553.64L837.6 598.64L798.63 621.14L759.65 598.64L759.65 553.64zM876.57 396.14L915.54 418.64L915.54 463.64L876.57 486.14L837.6 463.64L837.6 418.64zM915.54 598.64L954.51 621.14L954.51 666.14L915.54 688.64L876.57 666.14L876.57 621.14zM915.54 868.64L954.51 891.14L954.51 936.14L915.54 958.64L876.57 936.14L876.57 891.14zM954.51 261.14L993.49 283.64L993.49 328.64L954.51 351.14L915.54 328.64L915.54 283.64zM954.51 531.14L993.49 553.64L993.49 598.64L954.51 621.14L915.54 598.64L915.54 553.64zM993.49 598.64L1032.46 621.14L1032.46 666.14L993.49 688.64L954.51 666.14L954.51 621.14zM1032.46 261.14L1071.43 283.64L1071.43 328.64L1032.46 351.14L993.49 328.64L993.49 283.64zM1149.38 58.64L1188.35 81.14L1188.35 126.14L1149.38 148.64L1110.4 126.14L1110.4 81.14zM1149.38 463.64L1188.35 486.14L1188.35 531.14L1149.38 553.64L1110.4 531.14L1110.4 486.14zM1110.4 531.14L1149.38 553.64L1149.38 598.64L1110.4 621.14L1071.43 598.64L1071.43 553.64zM1149.38 598.64L1188.35 621.14L1188.35 666.14L1149.38 688.64L1110.4 666.14L1110.4 621.14zM1110.4 666.14L1149.38 688.64L1149.38 733.64L1110.4 756.14L1071.43 733.64L1071.43 688.64zM1227.32 58.64L1266.29 81.14L1266.29 126.14L1227.32 148.64L1188.35 126.14L1188.35 81.14zM1227.32 463.64L1266.29 486.14L1266.29 531.14L1227.32 553.64L1188.35 531.14L1188.35 486.14zM1227.32 733.64L1266.29 756.14L1266.29 801.14L1227.32 823.64L1188.35 801.14L1188.35 756.14zM1188.35 801.14L1227.32 823.64L1227.32 868.64L1188.35 891.14L1149.38 868.64L1149.38 823.64zM1266.29 126.14L1305.26 148.64L1305.26 193.64L1266.29 216.14L1227.32 193.64L1227.32 148.64zM1344.24 -8.86L1383.21 13.64L1383.21 58.64L1344.24 81.14L1305.26 58.64L1305.26 13.64zM1383.21 193.64L1422.18 216.14L1422.18 261.14L1383.21 283.64L1344.24 261.14L1344.24 216.14zM1383.21 328.64L1422.18 351.14L1422.18 396.14L1383.21 418.64L1344.24 396.14L1344.24 351.14zM1383.21 463.64L1422.18 486.14L1422.18 531.14L1383.21 553.64L1344.24 531.14L1344.24 486.14zM1344.24 801.14L1383.21 823.64L1383.21 868.64L1344.24 891.14L1305.26 868.64L1305.26 823.64zM1461.15 58.64L1500.13 81.14L1500.13 126.14L1461.15 148.64L1422.18 126.14L1422.18 81.14zM1422.18 531.14L1461.15 553.64L1461.15 598.64L1422.18 621.14L1383.21 598.64L1383.21 553.64zM1461.15 733.64L1500.13 756.14L1500.13 801.14L1461.15 823.64L1422.18 801.14L1422.18 756.14z" stroke="rgba(250, 109, 55, 1)" stroke-width="2"></path><path d="M60.42 231.67L106.32 258.17L106.32 311.17L60.42 337.67L14.52 311.17L14.52 258.17zM14.52 311.17L60.42 337.67L60.42 390.67L14.52 417.17L-31.38 390.67L-31.38 337.67zM14.52 470.17L60.42 496.67L60.42 549.67L14.52 576.17L-31.38 549.67L-31.38 496.67zM14.52 629.17L60.42 655.67L60.42 708.67L14.52 735.17L-31.38 708.67L-31.38 655.67zM106.32 152.17L152.22 178.67L152.22 231.67L106.32 258.17L60.42 231.67L60.42 178.67zM152.22 231.67L198.12 258.17L198.12 311.17L152.22 337.67L106.32 311.17L106.32 258.17zM106.32 311.17L152.22 337.67L152.22 390.67L106.32 417.17L60.42 390.67L60.42 337.67zM106.32 470.17L152.22 496.67L152.22 549.67L106.32 576.17L60.42 549.67L60.42 496.67zM198.12 -6.83L244.02 19.67L244.02 72.67L198.12 99.17L152.22 72.67L152.22 19.67zM244.02 231.67L289.92 258.17L289.92 311.17L244.02 337.67L198.12 311.17L198.12 258.17zM244.02 549.67L289.92 576.17L289.92 629.17L244.02 655.67L198.12 629.17L198.12 576.17zM198.12 788.17L244.02 814.67L244.02 867.67L198.12 894.17L152.22 867.67L152.22 814.67zM289.92 311.17L335.82 337.67L335.82 390.67L289.92 417.17L244.02 390.67L244.02 337.67zM289.92 470.17L335.82 496.67L335.82 549.67L289.92 576.17L244.02 549.67L244.02 496.67zM335.82 549.67L381.73 576.17L381.73 629.17L335.82 655.67L289.92 629.17L289.92 576.17zM289.92 788.17L335.82 814.67L335.82 867.67L289.92 894.17L244.02 867.67L244.02 814.67zM427.63 72.67L473.53 99.17L473.53 152.17L427.63 178.67L381.73 152.17L381.73 99.17zM381.73 470.17L427.63 496.67L427.63 549.67L381.73 576.17L335.82 549.67L335.82 496.67zM427.63 549.67L473.53 576.17L473.53 629.17L427.63 655.67L381.73 629.17L381.73 576.17zM381.73 629.17L427.63 655.67L427.63 708.67L381.73 735.17L335.82 708.67L335.82 655.67zM519.43 231.67L565.33 258.17L565.33 311.17L519.43 337.67L473.53 311.17L473.53 258.17zM519.43 390.67L565.33 417.17L565.33 470.17L519.43 496.67L473.53 470.17L473.53 417.17zM473.53 629.17L519.43 655.67L519.43 708.67L473.53 735.17L427.63 708.67L427.63 655.67zM611.23 72.67L657.13 99.17L657.13 152.17L611.23 178.67L565.33 152.17L565.33 99.17zM565.33 152.17L611.23 178.67L611.23 231.67L565.33 258.17L519.43 231.67L519.43 178.67zM611.23 390.67L657.13 417.17L657.13 470.17L611.23 496.67L565.33 470.17L565.33 417.17zM565.33 470.17L611.23 496.67L611.23 549.67L565.33 576.17L519.43 549.67L519.43 496.67zM611.23 708.67L657.13 735.17L657.13 788.17L611.23 814.67L565.33 788.17L565.33 735.17zM611.23 867.67L657.13 894.17L657.13 947.17L611.23 973.67L565.33 947.17L565.33 894.17zM703.03 72.67L748.93 99.17L748.93 152.17L703.03 178.67L657.13 152.17L657.13 99.17zM657.13 311.17L703.03 337.67L703.03 390.67L657.13 417.17L611.23 390.67L611.23 337.67zM657.13 470.17L703.03 496.67L703.03 549.67L657.13 576.17L611.23 549.67L611.23 496.67zM657.13 629.17L703.03 655.67L703.03 708.67L657.13 735.17L611.23 708.67L611.23 655.67zM703.03 867.67L748.93 894.17L748.93 947.17L703.03 973.67L657.13 947.17L657.13 894.17zM794.83 72.67L840.73 99.17L840.73 152.17L794.83 178.67L748.93 152.17L748.93 99.17zM794.83 231.67L840.73 258.17L840.73 311.17L794.83 337.67L748.93 311.17L748.93 258.17zM748.93 470.17L794.83 496.67L794.83 549.67L748.93 576.17L703.03 549.67L703.03 496.67zM748.93 788.17L794.83 814.67L794.83 867.67L748.93 894.17L703.03 867.67L703.03 814.67zM840.73 152.17L886.63 178.67L886.63 231.67L840.73 258.17L794.83 231.67L794.83 178.67zM886.63 231.67L932.53 258.17L932.53 311.17L886.63 337.67L840.73 311.17L840.73 258.17zM886.63 390.67L932.53 417.17L932.53 470.17L886.63 496.67L840.73 470.17L840.73 417.17zM932.53 -6.83L978.43 19.67L978.43 72.67L932.53 99.17L886.63 72.67L886.63 19.67zM978.43 72.67L1024.33 99.17L1024.33 152.17L978.43 178.67L932.53 152.17L932.53 99.17zM932.53 311.17L978.43 337.67L978.43 390.67L932.53 417.17L886.63 390.67L886.63 337.67zM978.43 549.67L1024.33 576.17L1024.33 629.17L978.43 655.67L932.53 629.17L932.53 576.17zM978.43 708.67L1024.33 735.17L1024.33 788.17L978.43 814.67L932.53 788.17L932.53 735.17zM1024.33 311.17L1070.23 337.67L1070.23 390.67L1024.33 417.17L978.43 390.67L978.43 337.67zM1024.33 470.17L1070.23 496.67L1070.23 549.67L1024.33 576.17L978.43 549.67L978.43 496.67zM1024.33 629.17L1070.23 655.67L1070.23 708.67L1024.33 735.17L978.43 708.67L978.43 655.67zM1070.23 708.67L1116.14 735.17L1116.14 788.17L1070.23 814.67L1024.33 788.17L1024.33 735.17zM1162.04 231.67L1207.94 258.17L1207.94 311.17L1162.04 337.67L1116.14 311.17L1116.14 258.17zM1162.04 390.67L1207.94 417.17L1207.94 470.17L1162.04 496.67L1116.14 470.17L1116.14 417.17zM1253.84 231.67L1299.74 258.17L1299.74 311.17L1253.84 337.67L1207.94 311.17L1207.94 258.17zM1207.94 311.17L1253.84 337.67L1253.84 390.67L1207.94 417.17L1162.04 390.67L1162.04 337.67zM1253.84 549.67L1299.74 576.17L1299.74 629.17L1253.84 655.67L1207.94 629.17L1207.94 576.17zM1207.94 629.17L1253.84 655.67L1253.84 708.67L1207.94 735.17L1162.04 708.67L1162.04 655.67zM1207.94 788.17L1253.84 814.67L1253.84 867.67L1207.94 894.17L1162.04 867.67L1162.04 814.67zM1345.64 231.67L1391.54 258.17L1391.54 311.17L1345.64 337.67L1299.74 311.17L1299.74 258.17zM1345.64 549.67L1391.54 576.17L1391.54 629.17L1345.64 655.67L1299.74 629.17L1299.74 576.17zM1299.74 629.17L1345.64 655.67L1345.64 708.67L1299.74 735.17L1253.84 708.67L1253.84 655.67zM1391.54 152.17L1437.44 178.67L1437.44 231.67L1391.54 258.17L1345.64 231.67L1345.64 178.67zM1437.44 231.67L1483.34 258.17L1483.34 311.17L1437.44 337.67L1391.54 311.17L1391.54 258.17zM1437.44 390.67L1483.34 417.17L1483.34 470.17L1437.44 496.67L1391.54 470.17L1391.54 417.17zM1391.54 788.17L1437.44 814.67L1437.44 867.67L1391.54 894.17L1345.64 867.67L1345.64 814.67zM1437.44 867.67L1483.34 894.17L1483.34 947.17L1437.44 973.67L1391.54 947.17L1391.54 894.17z" stroke="rgba(255, 171, 14, 1)" stroke-width="2"></path></g><defs><mask id="SvgjsMask1075"><rect width="1440" height="900" fill="#ffffff"></rect></mask></defs></svg>