<svg xmlns="http://www.w3.org/2000/svg" version="1.1" xmlns:xlink="http://www.w3.org/1999/xlink" xmlns:svgjs="http://svgjs.com/svgjs" width="1200" height="1200" preserveAspectRatio="none" viewBox="0 0 1200 1200"><g mask="url(&quot;#SvgjsMask1762&quot;)" fill="none"><rect width="1200" height="1200" x="0" y="0" fill="rgba(255, 255, 255, 1)"></rect><use xlink:href="#SvgjsG1773" transform="translate(0, 0)" fill="rgba(58, 16, 39, 1)"></use><use xlink:href="#SvgjsG1773" transform="translate(0, 629)" fill="rgba(58, 16, 39, 1)"></use><use xlink:href="#SvgjsG1773" transform="translate(629, 0)" fill="rgba(58, 16, 39, 1)"></use><use xlink:href="#SvgjsG1773" transform="translate(629, 629)" fill="rgba(217, 26, 95, 1)"></use></g><defs><mask id="SvgjsMask1762"><rect width="1200" height="1200" fill="#ffffff"></rect></mask><g id="SvgjsG1769"><path d="M8.312 8.242l0 0.521c0.492-0.069 0.443-0.509 0-0.52v-0.001z m-0.51-0.627V7.155c-0.365 0.064-0.358 0.454 0 0.46z"></path><path d="M8.055 5.946c-1.128 0-2.044 0.915-2.044 2.043 0 1.129 0.915 2.044 2.045 2.044 1.129 0 2.043-0.915 2.043-2.044 0-1.128-0.915-2.043-2.043-2.043l-0.001 0z m0.251 3.336v0.364h-0.507v-0.37c-0.29-0.043-0.822-0.323-0.855-0.924h0.534c0.034 0.154 0.078 0.34 0.321 0.409l-0.001-0.605c-0.334-0.048-0.814-0.194-0.814-0.73 0-0.602 0.666-0.789 0.813-0.789v-0.364h0.502v0.364c0.338 0.02 0.83 0.302 0.829 0.84h-0.528c-0.014-0.16-0.137-0.317-0.296-0.327v0.554c0.403 0.041 0.877 0.195 0.877 0.738 0 0.473-0.475 0.818-0.877 0.84h0.002z"></path><path d="M0 11.93h16V4H0v7.93z m1.508-1.508V5.508h12.984V10.422H1.508z"></path></g><g id="SvgjsG1766"><path d="M0.267 14.413h15.466V16H0.267z m0.632-1.535h13.998v0.872H0.899z m1.139-7.74h2.352v7.056h-2.352z m4.693 0h2.352v7.056h-2.352z m4.513 0h2.352v7.056H11.244zM0 3.595L8 0l8 3.595-0.007 0.927L0 4.535z"></path></g><g id="SvgjsG1772"><path d="M14.225 3.277L11.437 4.993v2.573h-1.067V4.125h-1.292V1.133h-3.432v4.899h-1.716v-1.683L2.536 3.492 1.142 4.349v3.003H0.07v7.507l15.442-0.001V9.282h-1.287V3.277z" fill-rule="evenodd"></path></g><g id="SvgjsG1771"><path d="M2.115 12.192a1.05 1.05 0 1 1 0-2.1 1.05 1.05 0 0 1 0 2.1zM0 16V13.942c0-0.742 0.61-1.344 1.352-1.344h1.45c0.743 0 1.406 0.603 1.406 1.345V16H0z m13-3.897a1.051 1.051 0 0 0 1.05-1.05 1.05 1.05 0 0 0-2.099 0 1.05 1.05 0 0 0 1.051 1.049zM15.114 16V13.942c0-0.742-0.61-1.344-1.353-1.344h-1.448c-0.744 0-1.406 0.603-1.407 1.345V16h4.208z"></path><path d="M6.494 11.133a1.062 1.053 0 1 0 2.124 0 1.062 1.053 0 1 0-2.124 0"></path><path d="M4.998 16l0.836-2.277c0.335-1.163 1.31-1.128 1.309-1.127h0.828s0.974-0.036 1.309 1.127L10.116 16h-5.118z m2.558-7.25v-2.491l-0.414-0.414v2.49H0.885V0.414h6.257V4.483l0.414 0.414V0H0.474v8.75h7.082z m5.44-4.548a1.049 1.049 0 0 1-1.048-1.048c0-0.579 0.47-1.049 1.048-1.049a1.047 1.047 0 0 1 1.047 1.048 1.046 1.046 0 0 1-1.048 1.048z"></path><path d="M8.329 6.958a0.441 0.441 0 0 0 0.442 0.442h1.454c0.165 0 0.382-0.066 0.474-0.205 0.314-0.464 0.643-0.953 0.741-1.1v2.749h3.661V6.025c0-0.737-0.576-1.401-1.256-1.4 0.002 0.346 0 0.118 0-0.015H12.082a1.343 1.343 0 0 0-1.119 0.599l-0.871 1.313-1.32-0.001L6.907 4.656a0.179 0.179 0 0 0-0.254 0 0.18 0.18 0 0 0 0 0.254l1.774 1.775c-0.038 0.063-0.098 0.192-0.097 0.273z"></path></g><g id="SvgjsG1768"><path d="M8.312 4.802l0 0.521c0.492-0.069 0.443-0.509 0-0.52z m-0.51-0.627V3.715c-0.365 0.064-0.358 0.454 0 0.46z"></path><path d="M8.055 2.506c-1.128 0-2.044 0.915-2.044 2.043 0 1.129 0.915 2.044 2.045 2.044 1.129 0 2.043-0.915 2.043-2.044 0-1.128-0.915-2.043-2.043-2.043z m0.251 3.336v0.364h-0.507v-0.37c-0.29-0.043-0.822-0.323-0.855-0.924h0.534c0.034 0.154 0.078 0.34 0.321 0.409l-0.001-0.605c-0.334-0.048-0.814-0.194-0.814-0.73 0-0.602 0.666-0.789 0.813-0.789v-0.364h0.502v0.364c0.338 0.02 0.83 0.302 0.83 0.84h-0.528c-0.014-0.16-0.137-0.317-0.296-0.327v0.554c0.403 0.041 0.877 0.195 0.877 0.738 0 0.473-0.475 0.818-0.877 0.84z m1.733 5.54c-1.129 0-2.044 0.915-2.043 2.044s0.915 2.043 2.043 2.043 2.043-0.915 2.043-2.043c0-1.129-0.915-2.044-2.043-2.044zM10.955 13.739v0.499h-0.636v0.701h-0.542V14.238h-0.68v-0.49h0.688l-0.894-1.576h0.593l0.551 0.972 0.597-0.972h0.547L10.293 13.739h0.662z m-7.36-4.673c-1.129 0-2.044 0.915-2.043 2.044S2.467 13.154 3.595 13.154s2.044-0.915 2.044-2.044-0.915-2.044-2.044-2.044z m0.065 1.654v0.486h-0.367v1.165H2.773v-1.162h-0.31v-0.484h0.31v-0.436c0-0.168 0.163-0.68 0.777-0.68 0.627 0 0.762 0.494 0.762 0.908h-0.511c0-0.265-0.037-0.404-0.246-0.404-0.226 0-0.262 0.155-0.262 0.4v0.206h0.366z m1.173 0.482c-0.421 0.052-0.516 0.276-0.517 0.554v0.616h-0.516V10.72h0.516v0.258c0.112-0.129 0.241-0.267 0.517-0.267v0.491z"></path><path d="M0 0.56v7.93h9.395c0.178 0.948 1.009 1.666 2.009 1.666s1.83-0.718 2.008-1.666H16V0.56H0z m11.195 7.221h0.464v0.441h-0.378c0.047 0.403-0.185 0.572-0.198 0.707h1.264v0.441H10.456v-0.441c0.215-0.144 0.327-0.508 0.258-0.703h-0.396v-0.448h0.318c-0.086-0.203-0.086-0.27-0.086-0.448s0.147-0.758 0.912-0.754c0.705 0.004 0.91 0.584 0.91 1l-0.537 0c-0.036-0.251-0.135-0.458-0.368-0.458-0.357 0-0.358 0.224-0.357 0.301s0.013 0.262 0.086 0.364z m3.297-0.798h-1.386c-0.366-0.551-0.992-0.914-1.703-0.914S10.067 6.432 9.701 6.982H1.508V2.068h12.984V6.982z"></path></g><g id="SvgjsG1770"><path d="M13.74 13.722c0.417-0.509 0.563-1.217 0.321-1.881l-0.22-0.607h1.332V0H0.72v11.234h7.773l0.847 2.326a1.922 1.922 0 0 0 1.455 1.234l0.399 1.206 3.335 0-0.789-2.278z m-1.212-6.07c-0.712 0.259-1.08 1.048-0.821 1.762l0.514 1.402H1.138V0.419h13.618v10.396h-1.07l-1.158-3.163z" fill-rule="evenodd"></path></g><g id="SvgjsG1763"><path d="M3.536 11.602h4.034c0.389 0.183 3.806 2.583 4.382 2.972l0.011-2.995h-0.022a2.761 2.761 0 0 0 2.422-2.742V3.09c0-1.527-1.234-2.766-2.765-2.765H3.538c-1.531 0-2.766 1.239-2.765 2.765v5.747c0 1.525 1.239 2.766 2.765 2.765z" fill-rule="evenodd"></path></g><g id="SvgjsG1765"><path d="M7.996 16h-0.001c-2.137-0.001-4.145-0.834-5.655-2.345C0.829 12.142-0.002 10.132 0 7.995-0.002 5.861 0.828 3.853 2.338 2.342 3.848 0.832 5.855 0 7.99 0h0.01C10.136 0 12.146 0.832 13.656 2.342c1.51 1.51 2.342 3.518 2.344 5.653-0.002 2.139-0.835 4.148-2.346 5.66-1.512 1.511-3.521 2.344-5.658 2.345z m-0.006-14.161c-1.644 0-3.189 0.64-4.351 1.804-1.162 1.163-1.801 2.708-1.8 4.352-0.001 1.648 0.639 3.196 1.802 4.359 1.163 1.164 2.709 1.805 4.354 1.807 3.398-0.002 6.163-2.768 6.167-6.166-0.002-3.394-2.765-6.155-6.16-6.155h-0.01z"></path><path d="M8.692 7.143V5.35c0.511 0.037 0.91 0.544 0.957 1.062h1.697c0.002-1.741-1.581-2.657-2.672-2.724v-1.175H7.056v1.175c-0.476 0.004-2.622 0.611-2.62 2.558-0.003 1.733 1.545 2.206 2.62 2.358v1.959c-0.783-0.222-0.926-0.824-1.036-1.323h-1.723c0.11 1.949 1.823 2.856 2.759 2.995v1.202h1.636v-1.184c1.294-0.07 2.827-1.187 2.829-2.716-0.002-1.758-1.529-2.256-2.829-2.393zM7.064 6.855c-1.152-0.018-1.175-1.281 0-1.488v1.488z m1.645 3.717V8.883c1.427 0.039 1.586 1.462 0 1.689z"></path></g><g id="SvgjsG1767"><path d="M1.658 6.512V3.299c0-0.456-0.373-0.826-0.832-0.827A0.827 0.827 0 0 0 0 3.299v4.399c0 0.608 0.219 1.196 0.611 1.655l2.744 2.913c0.272 0.255 0.339 0.483 0.339 0.827V13.624h2.986l0.003-1.262c0-0.481 0.04-1.123-0.562-1.753L2.641 7.114a0.657 0.657 0 0 0-0.46-0.185c-0.364 0-0.661 0.295-0.66 0.659 0 0.157 0.055 0.31 0.157 0.429L3.357 9.816c0.109 0.128 0.293 0.368 0.384 0.662 0.049 0.153 0.063 0.303 0.066 0.474h-0.54c-0.002-0.122-0.011-0.22-0.04-0.311-0.053-0.171-0.158-0.323-0.238-0.422L1.285 8.349c-0.214-0.216-0.331-0.496-0.331-0.791 0-0.442 0.265-0.848 0.705-1.048z m12.581 0V3.299c0-0.456 0.373-0.826 0.832-0.827a0.827 0.827 0 0 1 0.826 0.827v4.399c0 0.608-0.219 1.196-0.611 1.655L12.542 12.266c-0.272 0.256-0.339 0.483-0.339 0.827V13.624H9.218l-0.004-1.262c0-0.481-0.04-1.123 0.562-1.753l3.481-3.495a0.656 0.656 0 0 1 0.459-0.185c0.364 0 0.661 0.295 0.661 0.657a0.667 0.667 0 0 1-0.158 0.43l-1.679 1.798c-0.109 0.128-0.293 0.368-0.384 0.662-0.049 0.154-0.063 0.303-0.066 0.474h0.54c0.003-0.122 0.011-0.22 0.04-0.311 0.053-0.17 0.158-0.323 0.238-0.421L14.612 8.349c0.214-0.216 0.332-0.496 0.332-0.79 0-0.442-0.265-0.848-0.704-1.049z" fill-rule="evenodd"></path></g><g id="SvgjsG1764"><path d="M1.396 3.591v6.948h-1.04A0.356 0.356 0 0 1 0 10.182V1.217C0 0.914 0.227 0.667 0.537 0.667h4.593C5.44 0.667 5.667 0.913 5.667 1.216v0.527h7.102c0.198 0 0.357 0.159 0.357 0.355v2.016h-6.064V3.587c0-0.303-0.226-0.549-0.537-0.55H1.933c-0.311 0-0.537 0.25-0.537 0.555z" fill-rule="evenodd"></path><path d="M15.918 14.746c0 0.197-0.159 0.355-0.357 0.355H3.149c-0.198 0-0.357-0.158-0.356-0.355V5.78c0-0.303 0.227-0.55 0.536-0.55h4.593c0.311 0 0.538 0.246 0.538 0.549v0.527h7.101c0.198 0 0.357 0.159 0.357 0.355v8.085z" fill-rule="evenodd"></path></g><g id="SvgjsG1773"><use xlink:href="#SvgjsG1763" transform="translate(0, 0) scale(1.7)" fill="rgba(217, 26, 95, 1)"></use><use xlink:href="#SvgjsG1764" transform="translate(0, 62.9) scale(1.7)" fill="rgba(217, 26, 95, 1)"></use><use xlink:href="#SvgjsG1764" transform="translate(0, 125.8) scale(1.7)" fill="rgba(58, 16, 39, 1)"></use><use xlink:href="#SvgjsG1765" transform="translate(0, 188.7) scale(1.7)" fill="rgba(217, 26, 95, 1)"></use><use xlink:href="#SvgjsG1766" transform="translate(0, 251.6) scale(1.7)" fill="rgba(217, 26, 95, 1)"></use><use xlink:href="#SvgjsG1763" transform="translate(0, 314.5) scale(1.7)" fill="rgba(58, 16, 39, 1)"></use><use xlink:href="#SvgjsG1767" transform="translate(0, 377.4) scale(1.7)" fill="rgba(254, 191, 16, 1)"></use><use xlink:href="#SvgjsG1768" transform="translate(0, 440.3) scale(1.7)" fill="rgba(254, 191, 16, 1)"></use><use xlink:href="#SvgjsG1764" transform="translate(0, 503.2) scale(1.7)" fill="rgba(58, 16, 39, 1)"></use><use xlink:href="#SvgjsG1769" transform="translate(0, 566.1) scale(1.7)" fill="rgba(217, 26, 95, 1)"></use><use xlink:href="#SvgjsG1770" transform="translate(62.9, 0) scale(1.7)" fill="rgba(254, 191, 16, 1)"></use><use xlink:href="#SvgjsG1765" transform="translate(62.9, 62.9) scale(1.7)" fill="rgba(58, 16, 39, 1)"></use><use xlink:href="#SvgjsG1766" transform="translate(62.9, 125.8) scale(1.7)" fill="rgba(58, 16, 39, 1)"></use><use xlink:href="#SvgjsG1765" transform="translate(62.9, 188.7) scale(1.7)" fill="rgba(254, 191, 16, 1)"></use><use xlink:href="#SvgjsG1766" transform="translate(62.9, 251.6) scale(1.7)" fill="rgba(217, 26, 95, 1)"></use><use xlink:href="#SvgjsG1764" transform="translate(62.9, 314.5) scale(1.7)" fill="rgba(254, 191, 16, 1)"></use><use xlink:href="#SvgjsG1767" transform="translate(62.9, 377.4) scale(1.7)" fill="rgba(217, 26, 95, 1)"></use><use xlink:href="#SvgjsG1771" transform="translate(62.9, 440.3) scale(1.7)" fill="rgba(217, 26, 95, 1)"></use><use xlink:href="#SvgjsG1768" transform="translate(62.9, 503.2) scale(1.7)" fill="rgba(254, 191, 16, 1)"></use><use xlink:href="#SvgjsG1763" transform="translate(62.9, 566.1) scale(1.7)" fill="rgba(58, 16, 39, 1)"></use><use xlink:href="#SvgjsG1769" transform="translate(125.8, 0) scale(1.7)" fill="rgba(217, 26, 95, 1)"></use><use xlink:href="#SvgjsG1772" transform="translate(125.8, 62.9) scale(1.7)" fill="rgba(254, 191, 16, 1)"></use><use xlink:href="#SvgjsG1772" transform="translate(125.8, 125.8) scale(1.7)" fill="rgba(217, 26, 95, 1)"></use><use xlink:href="#SvgjsG1769" transform="translate(125.8, 188.7) scale(1.7)" fill="rgba(254, 191, 16, 1)"></use><use xlink:href="#SvgjsG1770" transform="translate(125.8, 251.6) scale(1.7)" fill="rgba(217, 26, 95, 1)"></use><use xlink:href="#SvgjsG1768" transform="translate(125.8, 314.5) scale(1.7)" fill="rgba(58, 16, 39, 1)"></use><use xlink:href="#SvgjsG1767" transform="translate(125.8, 377.4) scale(1.7)" fill="rgba(254, 191, 16, 1)"></use><use xlink:href="#SvgjsG1769" transform="translate(125.8, 440.3) scale(1.7)" fill="rgba(58, 16, 39, 1)"></use><use xlink:href="#SvgjsG1766" transform="translate(125.8, 503.2) scale(1.7)" fill="rgba(217, 26, 95, 1)"></use><use xlink:href="#SvgjsG1768" transform="translate(125.8, 566.1) scale(1.7)" fill="rgba(217, 26, 95, 1)"></use><use xlink:href="#SvgjsG1772" transform="translate(188.7, 0) scale(1.7)" fill="rgba(58, 16, 39, 1)"></use><use xlink:href="#SvgjsG1764" transform="translate(188.7, 62.9) scale(1.7)" fill="rgba(58, 16, 39, 1)"></use><use xlink:href="#SvgjsG1763" transform="translate(188.7, 125.8) scale(1.7)" fill="rgba(254, 191, 16, 1)"></use><use xlink:href="#SvgjsG1763" transform="translate(188.7, 188.7) scale(1.7)" fill="rgba(217, 26, 95, 1)"></use><use xlink:href="#SvgjsG1764" transform="translate(188.7, 251.6) scale(1.7)" fill="rgba(254, 191, 16, 1)"></use><use xlink:href="#SvgjsG1763" transform="translate(188.7, 314.5) scale(1.7)" fill="rgba(58, 16, 39, 1)"></use><use xlink:href="#SvgjsG1767" transform="translate(188.7, 377.4) scale(1.7)" fill="rgba(217, 26, 95, 1)"></use><use xlink:href="#SvgjsG1768" transform="translate(188.7, 440.3) scale(1.7)" fill="rgba(58, 16, 39, 1)"></use><use xlink:href="#SvgjsG1763" transform="translate(188.7, 503.2) scale(1.7)" fill="rgba(254, 191, 16, 1)"></use><use xlink:href="#SvgjsG1766" transform="translate(188.7, 566.1) scale(1.7)" fill="rgba(217, 26, 95, 1)"></use><use xlink:href="#SvgjsG1765" transform="translate(251.6, 0) scale(1.7)" fill="rgba(58, 16, 39, 1)"></use><use xlink:href="#SvgjsG1767" transform="translate(251.6, 62.9) scale(1.7)" fill="rgba(58, 16, 39, 1)"></use><use xlink:href="#SvgjsG1763" transform="translate(251.6, 125.8) scale(1.7)" fill="rgba(254, 191, 16, 1)"></use><use xlink:href="#SvgjsG1772" transform="translate(251.6, 188.7) scale(1.7)" fill="rgba(58, 16, 39, 1)"></use><use xlink:href="#SvgjsG1770" transform="translate(251.6, 251.6) scale(1.7)" fill="rgba(217, 26, 95, 1)"></use><use xlink:href="#SvgjsG1770" transform="translate(251.6, 314.5) scale(1.7)" fill="rgba(254, 191, 16, 1)"></use><use xlink:href="#SvgjsG1766" transform="translate(251.6, 377.4) scale(1.7)" fill="rgba(58, 16, 39, 1)"></use><use xlink:href="#SvgjsG1768" transform="translate(251.6, 440.3) scale(1.7)" fill="rgba(217, 26, 95, 1)"></use><use xlink:href="#SvgjsG1771" transform="translate(251.6, 503.2) scale(1.7)" fill="rgba(254, 191, 16, 1)"></use><use xlink:href="#SvgjsG1771" transform="translate(251.6, 566.1) scale(1.7)" fill="rgba(58, 16, 39, 1)"></use><use xlink:href="#SvgjsG1767" transform="translate(314.5, 0) scale(1.7)" fill="rgba(217, 26, 95, 1)"></use><use xlink:href="#SvgjsG1763" transform="translate(314.5, 62.9) scale(1.7)" fill="rgba(58, 16, 39, 1)"></use><use xlink:href="#SvgjsG1767" transform="translate(314.5, 125.8) scale(1.7)" fill="rgba(217, 26, 95, 1)"></use><use xlink:href="#SvgjsG1771" transform="translate(314.5, 188.7) scale(1.7)" fill="rgba(254, 191, 16, 1)"></use><use xlink:href="#SvgjsG1763" transform="translate(314.5, 251.6) scale(1.7)" fill="rgba(217, 26, 95, 1)"></use><use xlink:href="#SvgjsG1769" transform="translate(314.5, 314.5) scale(1.7)" fill="rgba(254, 191, 16, 1)"></use><use xlink:href="#SvgjsG1771" transform="translate(314.5, 377.4) scale(1.7)" fill="rgba(254, 191, 16, 1)"></use><use xlink:href="#SvgjsG1764" transform="translate(314.5, 440.3) scale(1.7)" fill="rgba(58, 16, 39, 1)"></use><use xlink:href="#SvgjsG1764" transform="translate(314.5, 503.2) scale(1.7)" fill="rgba(217, 26, 95, 1)"></use><use xlink:href="#SvgjsG1766" transform="translate(314.5, 566.1) scale(1.7)" fill="rgba(254, 191, 16, 1)"></use><use xlink:href="#SvgjsG1770" transform="translate(377.4, 0) scale(1.7)" fill="rgba(217, 26, 95, 1)"></use><use xlink:href="#SvgjsG1763" transform="translate(377.4, 62.9) scale(1.7)" fill="rgba(217, 26, 95, 1)"></use><use xlink:href="#SvgjsG1771" transform="translate(377.4, 125.8) scale(1.7)" fill="rgba(217, 26, 95, 1)"></use><use xlink:href="#SvgjsG1763" transform="translate(377.4, 188.7) scale(1.7)" fill="rgba(217, 26, 95, 1)"></use><use xlink:href="#SvgjsG1769" transform="translate(377.4, 251.6) scale(1.7)" fill="rgba(254, 191, 16, 1)"></use><use xlink:href="#SvgjsG1767" transform="translate(377.4, 314.5) scale(1.7)" fill="rgba(58, 16, 39, 1)"></use><use xlink:href="#SvgjsG1763" transform="translate(377.4, 377.4) scale(1.7)" fill="rgba(254, 191, 16, 1)"></use><use xlink:href="#SvgjsG1769" transform="translate(377.4, 440.3) scale(1.7)" fill="rgba(254, 191, 16, 1)"></use><use xlink:href="#SvgjsG1770" transform="translate(377.4, 503.2) scale(1.7)" fill="rgba(217, 26, 95, 1)"></use><use xlink:href="#SvgjsG1764" transform="translate(377.4, 566.1) scale(1.7)" fill="rgba(58, 16, 39, 1)"></use><use xlink:href="#SvgjsG1766" transform="translate(440.3, 0) scale(1.7)" fill="rgba(254, 191, 16, 1)"></use><use xlink:href="#SvgjsG1768" transform="translate(440.3, 62.9) scale(1.7)" fill="rgba(217, 26, 95, 1)"></use><use xlink:href="#SvgjsG1763" transform="translate(440.3, 125.8) scale(1.7)" fill="rgba(254, 191, 16, 1)"></use><use xlink:href="#SvgjsG1765" transform="translate(440.3, 188.7) scale(1.7)" fill="rgba(217, 26, 95, 1)"></use><use xlink:href="#SvgjsG1770" transform="translate(440.3, 251.6) scale(1.7)" fill="rgba(217, 26, 95, 1)"></use><use xlink:href="#SvgjsG1772" transform="translate(440.3, 314.5) scale(1.7)" fill="rgba(217, 26, 95, 1)"></use><use xlink:href="#SvgjsG1764" transform="translate(440.3, 377.4) scale(1.7)" fill="rgba(254, 191, 16, 1)"></use><use xlink:href="#SvgjsG1767" transform="translate(440.3, 440.3) scale(1.7)" fill="rgba(58, 16, 39, 1)"></use><use xlink:href="#SvgjsG1765" transform="translate(440.3, 503.2) scale(1.7)" fill="rgba(58, 16, 39, 1)"></use><use xlink:href="#SvgjsG1771" transform="translate(440.3, 566.1) scale(1.7)" fill="rgba(254, 191, 16, 1)"></use><use xlink:href="#SvgjsG1771" transform="translate(503.2, 0) scale(1.7)" fill="rgba(217, 26, 95, 1)"></use><use xlink:href="#SvgjsG1766" transform="translate(503.2, 62.9) scale(1.7)" fill="rgba(217, 26, 95, 1)"></use><use xlink:href="#SvgjsG1764" transform="translate(503.2, 125.8) scale(1.7)" fill="rgba(58, 16, 39, 1)"></use><use xlink:href="#SvgjsG1771" transform="translate(503.2, 188.7) scale(1.7)" fill="rgba(254, 191, 16, 1)"></use><use xlink:href="#SvgjsG1769" transform="translate(503.2, 251.6) scale(1.7)" fill="rgba(58, 16, 39, 1)"></use><use xlink:href="#SvgjsG1769" transform="translate(503.2, 314.5) scale(1.7)" fill="rgba(217, 26, 95, 1)"></use><use xlink:href="#SvgjsG1764" transform="translate(503.2, 377.4) scale(1.7)" fill="rgba(254, 191, 16, 1)"></use><use xlink:href="#SvgjsG1767" transform="translate(503.2, 440.3) scale(1.7)" fill="rgba(254, 191, 16, 1)"></use><use xlink:href="#SvgjsG1771" transform="translate(503.2, 503.2) scale(1.7)" fill="rgba(254, 191, 16, 1)"></use><use xlink:href="#SvgjsG1770" transform="translate(503.2, 566.1) scale(1.7)" fill="rgba(254, 191, 16, 1)"></use><use xlink:href="#SvgjsG1766" transform="translate(566.1, 0) scale(1.7)" fill="rgba(254, 191, 16, 1)"></use><use xlink:href="#SvgjsG1770" transform="translate(566.1, 62.9) scale(1.7)" fill="rgba(254, 191, 16, 1)"></use><use xlink:href="#SvgjsG1767" transform="translate(566.1, 125.8) scale(1.7)" fill="rgba(217, 26, 95, 1)"></use><use xlink:href="#SvgjsG1772" transform="translate(566.1, 188.7) scale(1.7)" fill="rgba(254, 191, 16, 1)"></use><use xlink:href="#SvgjsG1765" transform="translate(566.1, 251.6) scale(1.7)" fill="rgba(217, 26, 95, 1)"></use><use xlink:href="#SvgjsG1771" transform="translate(566.1, 314.5) scale(1.7)" fill="rgba(217, 26, 95, 1)"></use><use xlink:href="#SvgjsG1765" transform="translate(566.1, 377.4) scale(1.7)" fill="rgba(58, 16, 39, 1)"></use><use xlink:href="#SvgjsG1770" transform="translate(566.1, 440.3) scale(1.7)" fill="rgba(217, 26, 95, 1)"></use><use xlink:href="#SvgjsG1769" transform="translate(566.1, 503.2) scale(1.7)" fill="rgba(254, 191, 16, 1)"></use><use xlink:href="#SvgjsG1763" transform="translate(566.1, 566.1) scale(1.7)" fill="rgba(58, 16, 39, 1)"></use></g></defs></svg>