<svg xmlns="http://www.w3.org/2000/svg" version="1.1" xmlns:xlink="http://www.w3.org/1999/xlink" xmlns:svgjs="http://svgjs.com/svgjs" width="1000" height="1000" preserveAspectRatio="none" viewBox="0 0 1000 1000"><g clip-path="url(&quot;#SvgjsClipPath1012&quot;)" fill="none"><rect width="1000" height="1000" x="0" y="0" fill="rgba(255, 255, 255, 1)"></rect><circle r="166.665" cx="44.13" cy="-102.85" stroke="#ffab0e" stroke-opacity="1" stroke-width="2"></circle><circle r="162.9" cx="426.59" cy="561.03" stroke="#ffab0e" stroke-opacity="1" stroke-width="2"></circle><circle r="170.325" cx="822.87" cy="364.14" stroke="#ffab0e" stroke-opacity="1" stroke-width="2"></circle><circle r="330.47" cx="451.85" cy="692.92" stroke="#ffab0e" stroke-opacity="1" stroke-width="2"></circle><circle r="201.775" cx="727.5" cy="451.33" stroke="#ffab0e" stroke-opacity="1" stroke-width="2"></circle><circle r="132.255" cx="345.96" cy="833.68" stroke="#ffab0e" stroke-opacity="1" stroke-width="2"></circle><circle r="267.905" cx="675.6" cy="470.72" stroke="#ffab0e" stroke-opacity="1" stroke-width="2"></circle><circle r="228.955" cx="339.77" cy="877.42" stroke="#ffab0e" stroke-opacity="1" stroke-width="2"></circle><circle r="140.57" cx="767.92" cy="615.83" stroke="#ffab0e" stroke-opacity="1" stroke-width="2"></circle><circle r="90.28" cx="959.27" cy="736.4" stroke="#ffab0e" stroke-opacity="1" stroke-width="2"></circle><circle r="327.28" cx="549.62" cy="636.18" stroke="#ffab0e" stroke-opacity="1" stroke-width="2"></circle><circle r="249.165" cx="726.55" cy="350.79" stroke="#ffab0e" stroke-opacity="1" stroke-width="2"></circle><circle r="313.895" cx="132.89" cy="318.76" stroke="#ffab0e" stroke-opacity="1" stroke-width="2"></circle><circle r="190.2" cx="51.69" cy="239.62" stroke="#ffab0e" stroke-opacity="1" stroke-width="2"></circle><circle r="192.11" cx="463.85" cy="657.36" stroke="#ffab0e" stroke-opacity="1" stroke-width="2"></circle><circle r="212.565" cx="578.65" cy="914.96" stroke="#ffab0e" stroke-opacity="1" stroke-width="2"></circle><circle r="314.5" cx="904.03" cy="596.69" stroke="#ffab0e" stroke-opacity="1" stroke-width="2"></circle><circle r="306.18" cx="881.88" cy="866.64" stroke="#ffab0e" stroke-opacity="1" stroke-width="2"></circle><circle r="133.83" cx="782.4" cy="293.08" stroke="#ffab0e" stroke-opacity="1" stroke-width="2"></circle><circle r="318.24" cx="95.33" cy="536.21" stroke="#ffab0e" stroke-opacity="1" stroke-width="2"></circle><circle r="160.525" cx="881.56" cy="293.79" stroke="#ffab0e" stroke-opacity="1" stroke-width="2"></circle><circle r="97.42" cx="604.08" cy="214.11" stroke="#ffab0e" stroke-opacity="1" stroke-width="2"></circle><circle r="145.705" cx="221.81" cy="394.39" stroke="#ffab0e" stroke-opacity="1" stroke-width="2"></circle><circle r="138.815" cx="539.11" cy="394.96" stroke="#ffab0e" stroke-opacity="1" stroke-width="2"></circle><circle r="294.61" cx="589.54" cy="810.63" stroke="#ffab0e" stroke-opacity="1" stroke-width="2"></circle><circle r="236.77" cx="186.35" cy="353.18" stroke="#ffab0e" stroke-opacity="1" stroke-width="2"></circle><circle r="204.9" cx="836.77" cy="295.73" stroke="#ffab0e" stroke-opacity="1" stroke-width="2"></circle><circle r="207.315" cx="114.91" cy="966.94" stroke="#ffab0e" stroke-opacity="1" stroke-width="2"></circle><circle r="252.32" cx="172.86" cy="793.28" stroke="#ffab0e" stroke-opacity="1" stroke-width="2"></circle><circle r="144.875" cx="843.35" cy="705.15" stroke="#ffab0e" stroke-opacity="1" stroke-width="2"></circle><circle r="89.75" cx="584.69" cy="659.75" stroke="#ffab0e" stroke-opacity="1" stroke-width="2"></circle><circle r="288.945" cx="416.59" cy="41.66" stroke="#ffab0e" stroke-opacity="1" stroke-width="2"></circle><circle r="208.125" cx="807.34" cy="769.91" stroke="#ffab0e" stroke-opacity="1" stroke-width="2"></circle><circle r="301.5" cx="95.59" cy="121.56" stroke="#ffab0e" stroke-opacity="1" stroke-width="2"></circle><circle r="304.345" cx="816.64" cy="25.86" stroke="#ffab0e" stroke-opacity="1" stroke-width="2"></circle><circle r="122.51" cx="951.44" cy="963.66" stroke="#ffab0e" stroke-opacity="1" stroke-width="2"></circle><circle r="180.75" cx="975.81" cy="558.35" stroke="#ffab0e" stroke-opacity="1" stroke-width="2"></circle><circle r="273.05" cx="326.12" cy="105.9" stroke="#ffab0e" stroke-opacity="1" stroke-width="2"></circle><circle r="122.03" cx="4.05" cy="820.91" stroke="#ffab0e" stroke-opacity="1" stroke-width="2"></circle><circle r="134.16" cx="402.18" cy="694.37" stroke="#ffab0e" stroke-opacity="1" stroke-width="2"></circle></g><defs><clipPath id="SvgjsClipPath1012"><rect width="1000" height="1000" x="0" y="0"></rect></clipPath></defs></svg>